<svg width="24" height="24" viewBox="0 0 24 24" fill="none" xmlns="http://www.w3.org/2000/svg">
<path d="M21 21C20.7348 21 20.4804 20.8946 20.2929 20.7071C20.1054 20.5196 20 20.2652 20 20V16H16C15.7348 16 15.4804 15.8946 15.2929 15.7071C15.1054 15.5196 15 15.2652 15 15C15 14.7348 15.1054 14.4804 15.2929 14.2929C15.4804 14.1054 15.7348 14 16 14H21C21.2652 14 21.5196 14.1054 21.7071 14.2929C21.8946 14.4804 22 14.7348 22 15V20C22 20.2652 21.8946 20.5196 21.7071 20.7071C21.5196 20.8946 21.2652 21 21 21ZM8 10H3C2.73478 10 2.48043 9.89464 2.29289 9.70711C2.10536 9.51957 2 9.26522 2 9V4C2 3.73478 2.10536 3.48043 2.29289 3.29289C2.48043 3.10536 2.73478 3 3 3C3.26522 3 3.51957 3.10536 3.70711 3.29289C3.89464 3.48043 4 3.73478 4 4V8H8C8.26522 8 8.51957 8.10536 8.70711 8.29289C8.89464 8.48043 9 8.73478 9 9C9 9.26522 8.89464 9.51957 8.70711 9.70711C8.51957 9.89464 8.26522 10 8 10Z" fill="black"/>
<path d="M12.0002 22C9.53995 22.0004 7.16586 21.0939 5.33202 19.4537C3.49818 17.8136 2.33332 15.555 2.06023 13.11C2.04579 12.9786 2.05735 12.8458 2.09426 12.7189C2.13117 12.592 2.1927 12.4737 2.27534 12.3706C2.44225 12.1625 2.68501 12.0291 2.95023 12C3.21545 11.9708 3.48139 12.0482 3.68956 12.2151C3.89772 12.382 4.03106 12.6247 4.06023 12.89C4.25789 14.6927 5.06218 16.3747 6.34123 17.6603C7.62028 18.946 9.29819 19.7589 11.0999 19.9658C12.9015 20.1727 14.72 19.7613 16.2572 18.7991C17.7944 17.8369 18.9591 16.3809 19.5602 14.67C19.5977 14.5384 19.6618 14.416 19.7485 14.3102C19.8352 14.2044 19.9426 14.1176 20.0642 14.055C20.1858 13.9924 20.319 13.9554 20.4555 13.9463C20.5919 13.9372 20.7288 13.9562 20.8576 14.0021C20.9865 14.048 21.1045 14.1199 21.2044 14.2132C21.3044 14.3066 21.3842 14.4194 21.4388 14.5448C21.4934 14.6702 21.5217 14.8055 21.5219 14.9422C21.5222 15.079 21.4944 15.2144 21.4402 15.34C20.7491 17.2903 19.47 18.9782 17.7793 20.1711C16.0885 21.3639 14.0694 22.0029 12.0002 22ZM20.9402 12C20.693 12.0015 20.454 11.9113 20.2693 11.747C20.0847 11.5826 19.9674 11.3557 19.9402 11.11C19.7337 9.31589 18.9263 7.64446 17.6492 6.36756C16.3722 5.09066 14.7007 4.28341 12.9066 4.07711C11.1125 3.87081 9.30137 4.27761 7.76783 5.23133C6.23429 6.18505 5.06855 7.62958 4.46023 9.32996C4.42274 9.46148 4.35867 9.58392 4.27197 9.6897C4.18528 9.79548 4.07781 9.88235 3.95621 9.94494C3.83461 10.0075 3.70147 10.0445 3.565 10.0536C3.42854 10.0627 3.29167 10.0437 3.16284 9.99779C3.03401 9.95188 2.91597 9.88003 2.81601 9.78668C2.71606 9.69334 2.63631 9.58048 2.58171 9.45509C2.5271 9.3297 2.4988 9.19444 2.49854 9.05768C2.49829 8.92091 2.52609 8.78555 2.58023 8.65996C3.33316 6.52403 4.78882 4.70694 6.70897 3.50607C8.62913 2.30519 10.9 1.79168 13.1501 2.04955C15.4001 2.30743 17.4959 3.32142 19.0946 4.92559C20.6933 6.52975 21.7001 8.62907 21.9502 10.88C21.9783 11.1423 21.9016 11.4052 21.7368 11.6112C21.572 11.8173 21.3324 11.9498 21.0702 11.98L20.9402 12Z" fill="black"/>
</svg>
