<svg width="109" height="273" viewBox="0 0 109 273" fill="none" xmlns="http://www.w3.org/2000/svg">
<path d="M0 2.5C0 1.11929 1.11929 0 2.5 0H51C53.7614 0 56 2.23858 56 5H2.5C1.11929 5 0 3.88071 0 2.5Z" fill="#7D7D7D"/>
<path d="M53 134H106.5C107.881 134 109 135.119 109 136.5C109 137.881 107.881 139 106.5 139H53V134Z" fill="#7D7D7D"/>
<path d="M51 -2.18556e-07C53.7614 -9.78511e-08 56 2.23857 56 4.99999L56 268C56 270.761 53.7614 273 51 273L51 -2.18556e-07Z" fill="#7D7D7D"/>
<path d="M0 270.5C0 269.119 1.11929 268 2.5 268H56C56 270.761 53.7614 273 51 273H2.5C1.11929 273 0 271.881 0 270.5Z" fill="#7D7D7D"/>
</svg>
