<svg width="35" height="37" viewBox="0 0 35 37" fill="none" xmlns="http://www.w3.org/2000/svg">
<g filter="url(#filter0_d_1813_12)">
<path d="M25.803 0.0215946L17.6026 1.69642C16.4347 1.93448 15.6 2.91931 15.6 4.05883V17.7789C15.6 20.134 8 18.1656 8 24.7465C8 25.9549 8.76253 29 12.3903 29C16.8489 29.0012 18.1333 25.7676 18.1333 22.1786C18.1333 20.6428 18.1333 7.9003 18.1333 7.9003L25.8347 6.28831C26.5149 6.14572 27 5.57052 27 4.9047V0.944805C27 0.343027 26.4186 -0.105286 25.803 0.0215946Z" fill="#181818"/>
<line x1="4.70711" y1="1.29289" x2="29.7071" y2="26.2929" stroke="#181818" stroke-width="2"/>
</g>
<defs>
<filter id="filter0_d_1813_12" x="0" y="0" width="34.4141" height="37" filterUnits="userSpaceOnUse" color-interpolation-filters="sRGB">
<feFlood flood-opacity="0" result="BackgroundImageFix"/>
<feColorMatrix in="SourceAlpha" type="matrix" values="0 0 0 0 0 0 0 0 0 0 0 0 0 0 0 0 0 0 127 0" result="hardAlpha"/>
<feOffset dy="4"/>
<feGaussianBlur stdDeviation="2"/>
<feComposite in2="hardAlpha" operator="out"/>
<feColorMatrix type="matrix" values="0 0 0 0 0 0 0 0 0 0 0 0 0 0 0 0 0 0 0.25 0"/>
<feBlend mode="normal" in2="BackgroundImageFix" result="effect1_dropShadow_1813_12"/>
<feBlend mode="normal" in="SourceGraphic" in2="effect1_dropShadow_1813_12" result="shape"/>
</filter>
</defs>
</svg>
