<svg width="29" height="27" viewBox="0 0 29 27" fill="none" xmlns="http://www.w3.org/2000/svg">
<path d="M1.65013 0L0.283203 1.29801L27.3499 27L28.7168 25.702L26.0924 23.21C27.9978 20.3615 29 17.1142 29 13.7349C29 9.70975 27.5304 5.75806 24.8615 2.60498C24.527 2.21119 23.9178 2.14845 23.5021 2.46514C23.0855 2.78274 23.0203 3.36127 23.3548 3.75598C25.7831 6.62358 27.0667 10.0751 27.0667 13.7349C27.0667 16.6237 26.2405 19.4033 24.6821 21.8707L21.9577 19.2837C22.7742 17.5445 23.2 15.6644 23.2 13.7349C23.2 10.6515 22.1343 7.72712 20.1187 5.27809C19.7891 4.87879 19.1818 4.80735 18.7613 5.11853C18.3408 5.43062 18.2664 6.00827 18.5951 6.40757C20.3419 8.53074 21.2667 11.0646 21.2667 13.7349C21.2667 15.1618 20.99 16.5555 20.4699 17.8709L17.3056 14.8661C17.3608 14.492 17.4 14.1152 17.4 13.7349C17.4 11.5621 16.5244 9.49339 14.9342 7.90996C14.565 7.54371 13.954 7.52975 13.5673 7.87948C13.1816 8.22921 13.166 8.81124 13.5352 9.17749C14.6211 10.259 15.2814 11.6281 15.4327 13.0877L10.6333 8.53028V6.15657L9.35137 7.31295L1.65013 0ZM2.9 9.82829C1.29823 9.82829 0 11.0611 0 12.5821V14.4179C0 15.9389 1.29823 17.1717 2.9 17.1717H6.56842L10.6333 20.8434V13.7008L6.55521 9.82829H2.9ZM14.3697 17.2506C14.2218 17.4727 14.0793 17.6976 13.9034 17.9032C13.567 18.2961 13.6284 18.8746 14.0431 19.194C14.2229 19.3326 14.4383 19.4002 14.6529 19.4002C14.9342 19.4002 15.212 19.2844 15.4025 19.0614C15.5349 18.9071 15.6564 18.746 15.7763 18.5845L14.3697 17.2506Z" fill="#181818"/>
</svg>
