<svg width="29" height="24" viewBox="0 0 29 24" fill="none" xmlns="http://www.w3.org/2000/svg">
<path d="M24.1081 4.5568e-05C23.9238 -0.00175621 23.7428 0.0499085 23.5864 0.148947C23.4301 0.247986 23.3049 0.390269 23.2258 0.559018C23.1466 0.727766 23.1166 0.915944 23.1395 1.10136C23.1624 1.28678 23.2371 1.4617 23.3548 1.6055C25.6731 4.52817 27.0667 8.22355 27.0667 12.2562C27.0667 16.0752 25.8077 19.5842 23.7041 22.4324C23.628 22.5355 23.5726 22.6527 23.5412 22.7774C23.5098 22.9021 23.5029 23.0318 23.521 23.1593C23.539 23.2867 23.5817 23.4092 23.6465 23.5199C23.7112 23.6306 23.7969 23.7273 23.8986 23.8044C24.0002 23.8816 24.1159 23.9377 24.2389 23.9695C24.362 24.0014 24.49 24.0083 24.6157 23.99C24.7414 23.9717 24.8623 23.9285 24.9715 23.8629C25.0808 23.7972 25.1762 23.7104 25.2523 23.6073C27.5915 20.44 29 16.5123 29 12.2562C29 7.76529 27.4422 3.63057 24.8615 0.377012C24.772 0.260786 24.6577 0.166527 24.5273 0.101257C24.3969 0.0359878 24.2536 0.00139126 24.1081 4.5568e-05ZM19.3692 2.84165C19.1851 2.8376 19.0037 2.88691 18.8463 2.9838C18.689 3.08069 18.5621 3.22111 18.4808 3.38855C18.3995 3.55599 18.3671 3.74348 18.3873 3.92898C18.4076 4.11447 18.4797 4.29024 18.5951 4.43562C20.2646 6.60062 21.2667 9.3052 21.2667 12.2562C21.2667 14.9988 20.4023 17.5282 18.9406 19.6119C18.8612 19.7163 18.8033 19.8359 18.7706 19.9635C18.7378 20.0912 18.7308 20.2242 18.75 20.3546C18.7691 20.4851 18.8141 20.6102 18.8821 20.7226C18.9502 20.835 19.0399 20.9324 19.146 21.0088C19.252 21.0852 19.3722 21.1391 19.4993 21.1674C19.6264 21.1956 19.7578 21.1975 19.8856 21.173C20.0135 21.1486 20.1352 21.0982 20.2434 21.0249C20.3515 20.9516 20.444 20.857 20.5152 20.7466C22.1972 18.349 23.2 15.4176 23.2 12.2562C23.2 8.85472 22.0394 5.72077 20.1187 3.23009C20.0308 3.11226 19.9177 3.01611 19.7879 2.94884C19.6581 2.88157 19.515 2.84493 19.3692 2.84165ZM10.6333 4.16773L6.56654 8.08665H2.9C1.29823 8.08665 0 9.40243 0 11.0258V12.9853C0 14.6087 1.29823 15.9245 2.9 15.9245H6.56654L10.6333 19.8434V4.16773ZM14.247 5.72726C14.055 5.72309 13.8661 5.77699 13.7044 5.88207C13.5427 5.98716 13.4156 6.13867 13.3393 6.31728C13.2629 6.49589 13.2407 6.6935 13.2756 6.88492C13.3105 7.07634 13.4009 7.25288 13.5352 7.39204C14.7315 8.66222 15.4667 10.3676 15.4667 12.2562C15.4667 13.9445 14.8795 15.4873 13.9015 16.7052C13.8166 16.8044 13.7523 16.9198 13.7123 17.0447C13.6724 17.1695 13.6575 17.3012 13.6688 17.432C13.68 17.5628 13.717 17.6899 13.7776 17.8059C13.8383 17.9219 13.9213 18.0243 14.0218 18.1072C14.1222 18.19 14.2381 18.2516 14.3625 18.2881C14.4868 18.3247 14.6172 18.3356 14.7458 18.3201C14.8744 18.3047 14.9987 18.2632 15.1111 18.1981C15.2236 18.133 15.322 18.0457 15.4006 17.9414C16.6459 16.3905 17.4 14.4066 17.4 12.2562C17.4 9.84974 16.4563 7.65526 14.9342 6.03917C14.8461 5.94323 14.7399 5.86619 14.6218 5.81261C14.5038 5.75903 14.3763 5.73001 14.247 5.72726Z" fill="#565656"/>
</svg>
