<svg width="21" height="34" viewBox="0 0 21 34" fill="none" xmlns="http://www.w3.org/2000/svg">
<path d="M20.9929 21.0016C21.0178 20.7635 20.9777 20.5185 20.8684 20.2935C20.6511 19.8462 20.1964 19.5625 19.6994 19.5625L14.4061 19.5625L14.4061 2.60833C14.4061 1.16723 13.2416 -3.3913e-07 11.8039 -4.01975e-07L9.2017 -5.1572e-07C7.76398 -5.78565e-07 6.5995 1.16723 6.5995 2.60833L6.5995 19.5625L1.30109 19.5625C0.802772 19.5625 0.349422 19.8462 0.132138 20.2935C0.0423632 20.4761 -2.81096e-06 20.6723 -2.81946e-06 20.8666C-4.73929e-06 21.1523 0.0910521 21.4356 0.271903 21.669L9.4736 33.4982C9.72081 33.8151 10.0957 34 10.4977 34C10.8997 34 11.2784 33.8151 11.5244 33.4982L20.7261 21.669C20.8789 21.4721 20.968 21.2398 20.9929 21.0016Z" fill="#181818"/>
</svg>
