<svg width="21" height="34" viewBox="0 0 21 34" fill="none" xmlns="http://www.w3.org/2000/svg">
<path d="M0.00711512 12.9984C-0.0177683 13.2365 0.022342 13.4815 0.131634 13.7065C0.348917 14.1538 0.803569 14.4375 1.30059 14.4375L6.59392 14.4375L6.59392 31.3917C6.59392 32.8328 7.7584 34 9.19611 34L11.7983 34C13.236 34 14.4005 32.8328 14.4005 31.3917L14.4005 14.4375L19.6989 14.4375C20.1972 14.4375 20.6506 14.1538 20.8679 13.7065C20.9576 13.5239 21 13.3277 21 13.1334C21 12.8477 20.9089 12.5644 20.7281 12.331L11.5264 0.5018C11.2792 0.184886 10.9043 -4.76643e-07 10.5023 -4.5907e-07C10.1002 -4.41496e-07 9.72155 0.184887 9.47564 0.5018L0.273942 12.331C0.121063 12.5279 0.0319986 12.7602 0.00711512 12.9984Z" fill="#181818"/>
</svg>
